<svg width="18" height="18" viewBox="0 0 18 18" fill="none" xmlns="http://www.w3.org/2000/svg">
<path d="M15.7258 0.00219797C15.6623 0.00892692 15.6033 0.0373376 15.5577 0.082945L12.9003 2.74382C12.8398 2.80439 12.8099 2.88962 12.8196 2.9741L13.0094 4.58158L8.75553 8.83875H8.75628C8.6472 8.94866 8.6472 9.12586 8.75628 9.23576C8.80932 9.2881 8.88029 9.31801 8.95501 9.31801C9.02972 9.31801 9.10143 9.2881 9.15448 9.23576L13.3949 4.99198L15.0273 5.18562L15.0266 5.18488C15.1125 5.19534 15.1984 5.16544 15.2589 5.10413L17.9163 2.44459C17.9933 2.36833 18.0202 2.25543 17.9843 2.15301C17.9492 2.05058 17.8581 1.97731 17.7505 1.96534L16.2175 1.78441L16.0367 0.247961H16.0374C16.0247 0.141792 15.9523 0.0513336 15.8507 0.016192C15.8103 0.0019865 15.7677 -0.00324683 15.7259 0.0019865L15.7258 0.00219797ZM9.1238 0.0747223C8.64866 0.066498 8.17351 0.095658 7.70435 0.162199C5.82694 0.427617 4.03403 1.28893 2.62278 2.70135C-0.873503 6.20038 -0.874268 11.8797 2.62054 15.3774C6.11529 18.8749 11.7917 18.8743 15.2879 15.3751C18.1037 12.5571 18.7223 8.21322 16.8067 4.72089V4.72014C16.7701 4.6551 16.7096 4.6065 16.6387 4.58631C16.5669 4.56537 16.49 4.57435 16.4242 4.61023C16.289 4.68575 16.2397 4.85623 16.3152 4.99229C18.1119 8.26777 17.5314 12.3351 14.8905 14.9782C11.6086 18.2619 6.29829 18.2634 3.0187 14.9804C-0.260892 11.6975 -0.260892 6.38144 3.02094 3.09774C5.66787 0.448724 9.7425 -0.127015 13.0177 1.6839L13.0169 1.68316C13.1529 1.75792 13.3233 1.70932 13.3987 1.57325C13.4346 1.5082 13.4435 1.43119 13.4226 1.35941C13.4024 1.28764 13.3539 1.22708 13.2889 1.19119C11.9792 0.467456 10.5486 0.100345 9.12322 0.0741805L9.1238 0.0747223ZM15.5457 0.892662L15.6846 2.07174H15.6839C15.6988 2.20109 15.8012 2.30351 15.9312 2.31848L17.1093 2.45754L14.9577 4.61006L13.6107 4.45006H13.6115C13.6018 4.43585 13.5906 4.42314 13.5786 4.41043C13.5711 4.4037 13.5622 4.39697 13.5532 4.39099L13.3941 3.04444L15.5457 0.892662ZM8.98859 3.23294C8.78464 3.23219 8.58143 3.24117 8.37897 3.2621V3.26135C7.08205 3.39145 5.82843 3.95593 4.85266 4.93314C2.589 7.19935 2.58977 10.8808 4.85266 13.1455C7.11556 15.4101 10.7928 15.4086 13.057 13.1432C15.0091 11.1896 15.3155 8.12636 13.7891 5.82513H13.7884C13.7025 5.69653 13.5291 5.66064 13.4007 5.74588C13.3379 5.787 13.2946 5.8513 13.2796 5.92457C13.2647 5.99784 13.2796 6.0741 13.3215 6.13617C14.7013 8.2169 14.4256 10.9773 12.6603 12.744C10.611 14.7948 7.29626 14.7964 5.24852 12.7462C3.20002 10.6969 3.20155 7.37946 5.25077 5.32858C7.01612 3.56184 9.77503 3.2867 11.8541 4.6684H11.8534C11.9154 4.70952 11.9908 4.72447 12.0641 4.70952C12.1373 4.69531 12.2015 4.65195 12.2426 4.58914C12.2837 4.52709 12.2986 4.45157 12.2845 4.37829C12.2695 4.30502 12.2262 4.24072 12.1642 4.1996C11.1945 3.55511 10.0887 3.23811 8.98843 3.23212L8.98859 3.23294ZM8.94526 6.19222C8.74727 6.19297 8.55006 6.2139 8.35582 6.25577C7.8381 6.36717 7.34427 6.62437 6.9431 7.02586C5.83443 8.1354 5.83517 9.94169 6.9431 11.0505C8.05102 12.1593 9.85663 12.16 10.9653 11.0505C11.7677 10.2475 11.9933 9.08038 11.6332 8.07551V8.07476C11.6078 8.00448 11.5563 7.94691 11.4883 7.91476C11.4203 7.88261 11.3426 7.87888 11.2724 7.90504C11.1267 7.95813 11.052 8.11813 11.1043 8.26392C11.3927 9.06915 11.2163 10.0037 10.5694 10.6521C9.67511 11.547 8.23475 11.5478 7.34199 10.6543C6.44848 9.76008 6.44773 8.31861 7.34199 7.42438C7.98896 6.7769 8.92429 6.5997 9.72958 6.88904L9.72883 6.8883C9.87451 6.93988 10.0351 6.86437 10.0874 6.71783C10.139 6.57203 10.0635 6.41128 9.91784 6.35895C9.60408 6.24605 9.27461 6.18998 8.94515 6.19147L8.94526 6.19222Z" fill="white"/>
</svg>
