<svg width="18" height="18" viewBox="0 0 18 18" fill="none" xmlns="http://www.w3.org/2000/svg">
<path d="M16.8511 1.70962H15.8936V1.15074C15.8936 0.823535 15.7597 0.496331 15.5106 0.284203C15.2615 0.0720756 14.9362 -0.0430003 14.6108 0.0149228C12.5425 0.284203 10.0338 0.8431 8.99996 1.94056C7.96623 0.8431 5.45741 0.284203 3.40866 0.0149228C3.08329 -0.0234397 2.75791 0.072842 2.50882 0.284203C2.25973 0.496331 2.12584 0.823535 2.12584 1.15074V1.69007H1.14894C0.516868 1.69007 0 2.20984 0 2.84545V16.8446C0 17.4802 0.516868 18 1.14894 18H16.8511C17.4831 18 18 17.4802 18 16.8446V2.8649C18 2.22929 17.4831 1.70962 16.8511 1.70962ZM14.687 0.785157C14.8022 0.765601 14.898 0.804714 14.9937 0.881439C15.0895 0.939358 15.1276 1.05445 15.1276 1.15072V14.6105C15.1276 14.8031 14.9937 14.9761 14.8022 14.9956C13.2127 15.1882 10.7048 15.6501 9.38291 16.6129V2.71075C9.84217 1.88258 11.8147 1.17028 14.687 0.785157ZM2.87234 1.15072C2.87234 1.03488 2.91049 0.938592 3.00623 0.861875C3.08253 0.803955 3.15957 0.765593 3.25532 0.765593H3.31292C6.20479 1.15072 8.17637 1.86305 8.61698 2.69123V16.6138C7.3147 15.6509 4.7872 15.1891 3.19764 14.9965C3.00615 14.977 2.87226 14.804 2.87226 14.6114L2.87234 1.15072ZM0.765957 16.8643V2.86511C0.765957 2.65298 0.937999 2.47998 1.14894 2.47998H2.10638V14.6311C2.10638 15.2088 2.54696 15.7098 3.12143 15.7865C5.49552 16.0753 7.29609 16.6147 8.15779 17.2503L1.1489 17.2495C0.937953 17.2495 0.765957 17.0756 0.765957 16.8643ZM17.234 16.8643C17.234 17.0764 17.062 17.2494 16.8511 17.2494H9.84217C10.7039 16.6138 12.523 16.0745 14.8785 15.7856C15.453 15.7089 15.8936 15.2275 15.8936 14.6302V2.47987H16.851C17.062 2.47987 17.234 2.65288 17.234 2.865L17.234 16.8643Z" fill="white"/>
<path d="M10.4743 5.73378C10.5701 5.73378 10.6464 5.69542 10.7234 5.6375C11.1258 5.31029 12.1401 4.9056 13.4238 4.59796C13.6534 4.54004 13.8831 4.48212 14.1321 4.44376C14.3431 4.4054 14.477 4.19327 14.4388 3.98192C14.4007 3.76979 14.1897 3.63515 13.9796 3.67351C13.7305 3.73143 13.4814 3.78935 13.2331 3.84651C12.5629 4.00072 10.9352 4.44377 10.2269 5.04025C10.0735 5.1749 10.0354 5.42538 10.1693 5.57959C10.2448 5.67587 10.3599 5.73378 10.4743 5.73378Z" fill="white"/>
<path d="M10.4743 8.31373C10.5701 8.31373 10.6464 8.27537 10.7234 8.21745C11.1258 7.89025 12.1401 7.48556 13.4238 7.17792C13.6534 7.12 13.8831 7.06208 14.1321 7.02372C14.3431 6.98535 14.477 6.77323 14.4388 6.56187C14.4007 6.34975 14.1897 6.2151 13.9796 6.25346C13.7118 6.31138 13.4627 6.3693 13.2331 6.42647C12.5629 6.58067 10.9352 7.02373 10.2269 7.62021C10.0735 7.75485 10.0354 8.00534 10.1693 8.15954C10.2448 8.27538 10.3599 8.31373 10.4743 8.31373Z" fill="white"/>
<path d="M10.4742 10.8947C10.57 10.8947 10.6463 10.8563 10.7233 10.7984C11.1063 10.4712 12.14 10.0861 13.4041 9.77765C13.6338 9.71973 13.8634 9.66181 14.1125 9.62345C14.3235 9.58509 14.4573 9.37296 14.4192 9.1616C14.381 8.94948 14.1701 8.81484 13.9592 8.8532C13.7101 8.91111 13.461 8.96903 13.2127 9.0262C12.5425 9.1804 10.9148 9.62346 10.2065 10.2199C10.0531 10.3546 10.015 10.6051 10.1489 10.7593C10.2446 10.8563 10.3598 10.8947 10.4742 10.8947Z" fill="white"/>
<path d="M10.4743 13.4746C10.5701 13.4746 10.6464 13.4363 10.7234 13.3783C11.1064 13.0511 12.1401 12.666 13.4043 12.3576C13.6339 12.2997 13.8635 12.2418 14.1126 12.2034C14.3236 12.165 14.4574 11.9529 14.4193 11.7416C14.3812 11.5294 14.1702 11.3948 13.96 11.4332C13.6923 11.4911 13.4432 11.549 13.2135 11.6062C12.5433 11.7604 10.9157 12.2034 10.2073 12.7999C10.054 12.9345 10.0159 13.185 10.1497 13.3392C10.2447 13.4363 10.3599 13.4746 10.4743 13.4746Z" fill="white"/>
<path d="M3.88739 4.44374C4.13648 4.50166 4.36611 4.54003 4.59575 4.59795C5.85988 4.90636 6.89362 5.31028 7.29613 5.63748C7.37243 5.6954 7.44947 5.73376 7.54522 5.73376C7.66041 5.73376 7.75616 5.6954 7.83245 5.59912C7.96635 5.44492 7.94765 5.19443 7.77486 5.05979C7.0665 4.46253 5.43888 4.02025 4.76867 3.86605C4.53903 3.80813 4.28994 3.75021 4.02216 3.69304C3.81122 3.65468 3.61973 3.78932 3.5629 4.00145C3.50455 4.21283 3.67646 4.40539 3.88739 4.44374Z" fill="white"/>
<path d="M3.88741 7.0237C4.1365 7.08162 4.36614 7.11998 4.59577 7.1779C5.85991 7.48631 6.89364 7.89023 7.29615 8.21744C7.37245 8.27535 7.4495 8.31372 7.54524 8.31372C7.66044 8.31372 7.75619 8.27535 7.83248 8.17907C7.96637 8.02487 7.94767 7.77438 7.77488 7.63974C7.06652 7.04249 5.4389 6.60021 4.76869 6.446C4.53906 6.38808 4.28997 6.33016 4.02219 6.273C3.81124 6.23463 3.61975 6.36928 3.56292 6.5814C3.54272 6.79278 3.67648 6.98534 3.88741 7.0237Z" fill="white"/>
<path d="M4.76767 9.02706C4.53804 8.96914 4.28895 8.91122 4.02117 8.85405C3.81022 8.81569 3.61873 8.95033 3.5619 9.16246C3.5043 9.37459 3.65764 9.56715 3.86859 9.6243C4.11768 9.68222 4.34731 9.72059 4.57695 9.77851C5.84108 10.0869 6.87482 10.4908 7.27733 10.818C7.35363 10.876 7.43067 10.9143 7.52642 10.9143C7.64161 10.9143 7.73736 10.876 7.81365 10.7797C7.94755 10.6255 7.92885 10.375 7.75606 10.2403C7.0851 9.62355 5.43808 9.1805 4.76787 9.02704L4.76767 9.02706Z" fill="white"/>
<path d="M3.88741 12.1847C4.1365 12.2426 4.36614 12.281 4.59577 12.3389C5.85991 12.6473 6.89364 13.0512 7.29615 13.3784C7.37245 13.4364 7.4495 13.4747 7.54524 13.4747C7.66044 13.4747 7.75619 13.4364 7.83248 13.3401C7.96637 13.1859 7.94767 12.9354 7.77488 12.8008C7.06652 12.2035 5.4389 11.7612 4.76869 11.607C4.53906 11.5491 4.28997 11.4912 4.02219 11.434C3.81124 11.3956 3.61975 11.5303 3.56292 11.7424C3.54272 11.9538 3.67648 12.1464 3.88741 12.1847Z" fill="white"/>
</svg>
