<svg width="16" height="18" viewBox="0 0 16 18" fill="none" xmlns="http://www.w3.org/2000/svg">
<path d="M8 0L0 2.2875V6.73125C0 10.5938 2.08785 14.2313 5.58139 16.4625L8 18L10.4186 16.4625C13.9121 14.25 16 10.6125 16 6.73125V2.2875L8 0ZM14.8837 6.73125C14.8837 10.275 12.9819 13.5938 9.77777 15.6188L8 16.7438L6.22223 15.6188C3.01809 13.5938 1.11628 10.2563 1.11628 6.73125V3.01875L8 1.05L14.8837 3.01875V6.73125Z" fill="white"/>
<path d="M5.66412 5.7374V6.7499H4.7959V11.4562H11.2042V6.7499H10.3359V5.7374C10.3359 4.5749 9.28168 3.61865 8.00003 3.61865C6.71838 3.61865 5.66412 4.5749 5.66412 5.7374ZM8.53749 10.3124H7.46257L7.64861 9.05615C7.46256 8.94365 7.33853 8.75615 7.33853 8.5499C7.33853 8.2124 7.62794 7.94991 8.00003 7.94991C8.37212 7.94991 8.66153 8.2124 8.66153 8.5499C8.66153 8.75615 8.5375 8.94365 8.35145 9.05615L8.53749 10.3124ZM6.6357 5.7374C6.6357 5.04365 7.25585 4.4999 8.00003 4.4999C8.76489 4.4999 9.36437 5.0624 9.36437 5.7374V6.7499H6.6357V5.7374Z" fill="white"/>
</svg>
