<svg width="21" height="19" viewBox="0 0 21 19" fill="none" xmlns="http://www.w3.org/2000/svg">
<path fill-rule="evenodd" clip-rule="evenodd" d="M1.52968 9.84337H18.6703C18.9209 9.84337 19.1482 9.74489 19.3136 9.58695C19.4779 9.42802 19.5804 9.20962 19.5804 8.96877C19.5804 8.72892 19.4779 8.50955 19.3126 8.3506L19.3014 8.3389C19.137 8.1868 18.9138 8.0932 18.6703 8.0932L1.52969 8.09417C1.2801 8.09417 1.05183 8.19265 0.886425 8.35156L0.87425 8.36229C0.715971 8.51927 0.618569 8.73378 0.618569 8.96875C0.618569 9.20958 0.721043 9.42798 0.885398 9.58595H0.886412C1.05179 9.74488 1.28008 9.84337 1.52968 9.84337ZM17.3168 13.2462L16.2292 12.2888L14.616 13.8459L16.8085 15.7764C16.8805 15.5951 16.9353 15.4049 16.9708 15.206L17.3168 13.2462ZM15.8466 11.9514L14.2334 13.5085L12.5604 12.0363L14.2284 10.5289L15.8466 11.9514ZM14.7854 10.3426L16.2119 11.5984L17.5136 10.3426H14.7854ZM16.5944 11.9358L17.745 10.8243L17.4203 12.6622L16.5944 11.9358ZM2.77947 12.6632L3.60535 11.9358L2.45479 10.8243L2.77947 12.6632ZM3.98784 11.5985L2.68612 10.3427H5.4144L3.98784 11.5985ZM6.0759 10.4343L4.35311 11.9514L5.96632 13.5085L7.7236 11.9621L6.0759 10.4343ZM3.9706 12.2878L5.5838 13.8439L3.39125 15.7745C3.31922 15.5931 3.26443 15.403 3.22892 15.2041L2.88294 13.2453L3.9706 12.2878ZM17.1544 16.2543C17.1442 16.2913 17.126 16.3274 17.0976 16.3586C16.8926 16.7194 16.6248 17.0382 16.3062 17.3005C15.7979 17.7188 15.1637 17.9937 14.4636 18.0697C14.4535 18.0717 14.4444 18.0717 14.4342 18.0727C14.3155 18.0844 14.1948 18.0912 14.072 18.0912L10.112 18.1H10.1019H10.1039H10.0867L6.12671 18.0912C6.00496 18.0912 5.88422 18.0854 5.76552 18.0727C5.75537 18.0727 5.74421 18.0707 5.73407 18.0688C5.034 17.9927 4.39987 17.7178 3.89154 17.2995C3.57294 17.0372 3.3051 16.7194 3.10014 16.3576C3.07173 16.3264 3.05347 16.2913 3.04333 16.2533C2.88809 15.955 2.7765 15.6303 2.71561 15.2851L1.84103 10.3417H1.52651C1.13285 10.3417 0.77571 10.1876 0.516985 9.93801C0.261304 9.68939 0.0999756 9.34618 0.0999756 8.96885C0.0999756 8.59833 0.255211 8.26099 0.505816 8.01333L0.520021 7.99871C0.778743 7.75008 1.1369 7.59505 1.52954 7.59505H2.97231C3.09914 7.13385 3.2077 6.70583 3.31322 6.29143C4.2304 2.68863 4.8899 0.0999756 10.2116 0.0999756V0.100951C15.3983 0.0990007 15.9918 2.55507 16.8269 6.0136C16.9486 6.51865 17.0765 7.04517 17.2266 7.5941H18.6694C19.0549 7.5941 19.406 7.74328 19.6637 7.98411L19.6789 7.99776C19.9397 8.24736 20.1 8.59155 20.1 8.96887C20.1 9.34717 19.9397 9.69038 19.6799 9.93901H19.6789C19.4202 10.1876 19.063 10.3427 18.6704 10.3427H18.3559L17.4823 15.2861C17.4214 15.6313 17.3096 15.9569 17.1544 16.2543ZM16.571 16.2397C16.4076 16.498 16.2037 16.7281 15.9693 16.9222C15.5635 17.2566 15.0623 17.4828 14.5113 17.5628L12.5998 15.7911L14.2506 14.198L16.571 16.2397ZM13.8692 13.8606L12.1839 12.3766L10.5301 13.8713L12.2276 15.445L13.8692 13.8606ZM11.8004 12.0393L10.0999 10.5426L8.47861 11.9701L10.1567 13.5252L11.8004 12.0393ZM10.6377 10.3427L12.1778 11.698L13.6774 10.3427H10.6377ZM13.8003 17.595L12.2347 16.1432L10.725 17.6009L13.8003 17.595ZM11.8614 15.7981L10.1518 14.2127L8.36708 15.8253L10.1 17.4975L11.8614 15.7981ZM9.7794 13.8665L8.00285 15.4724L6.33281 13.8597L8.09822 12.3055L9.7794 13.8665ZM6.72333 10.3429H9.56122L8.10526 11.624L6.72333 10.3429ZM5.94918 14.197L3.62878 16.2397C3.79213 16.4981 3.99608 16.7282 4.23044 16.9222C4.63628 17.2566 5.1375 17.4838 5.69045 17.5628L7.62428 15.8146L5.94918 14.197ZM7.99056 16.1675L6.41185 17.595L9.47598 17.6008L7.99056 16.1675ZM16.6907 7.59507C16.5558 7.091 16.4371 6.5986 16.3224 6.12572C15.5422 2.89358 14.9872 0.597465 10.2126 0.599212V0.600187C5.29682 0.600187 4.6789 3.028 3.81761 6.40925C3.71818 6.79829 3.61672 7.19903 3.50917 7.59585H4.45987C4.54611 7.21852 4.62423 6.8363 4.70033 6.46678C5.30603 3.52019 5.74738 1.36935 10.1 1.37808C14.4454 1.37028 14.8919 3.52898 15.5028 6.48526C15.5779 6.84893 15.656 7.22529 15.7402 7.5958L16.6907 7.59507ZM15.2094 7.59507C15.1293 7.24016 15.0603 6.90477 14.9923 6.58008C14.4302 3.85788 14.0183 1.86778 10.0988 1.87452C6.17342 1.86672 5.76642 3.84795 5.2085 6.56136C5.14052 6.89189 5.07051 7.23315 4.98934 7.59487L15.2094 7.59507Z" fill="white" stroke="white" stroke-width="0.2"/>
</svg>
