<svg width="21" height="19" viewBox="0 0 21 19" fill="none" xmlns="http://www.w3.org/2000/svg">
<path fill-rule="evenodd" clip-rule="evenodd" d="M1.57971 9.89339H18.7203C18.9709 9.89339 19.1982 9.79491 19.3636 9.63696C19.528 9.47804 19.6304 9.25964 19.6304 9.01879C19.6304 8.77894 19.528 8.55957 19.3626 8.40062L19.3514 8.38892C19.1871 8.23682 18.9638 8.14321 18.7203 8.14321L1.57972 8.14419C1.33013 8.14419 1.10185 8.24267 0.936451 8.40158L0.924276 8.41231C0.765997 8.56929 0.668595 8.7838 0.668595 9.01877C0.668595 9.25942 0.770917 9.47767 0.935058 9.63562C0.935292 9.63585 0.935605 9.63597 0.935931 9.63597C0.936256 9.63597 0.936569 9.6361 0.936804 9.63632C1.10215 9.79505 1.33029 9.89339 1.57971 9.89339ZM17.2715 13.8366C17.3307 13.501 17.2108 13.1589 16.955 12.9337C16.5732 12.5976 15.9974 12.6108 15.6314 12.9641L15.538 13.0542C15.0683 13.5076 15.0856 14.2654 15.5756 14.6968L16.4127 15.4339C16.6299 15.6251 16.97 15.5409 17.0209 15.2561L17.2715 13.8366ZM15.008 11.2203C15.4866 11.6409 15.5038 12.3806 15.0454 12.8231L15.0069 12.8603C14.5982 13.2548 13.9551 13.2696 13.5287 12.8943C13.0394 12.4638 13.0344 11.7031 13.5179 11.2661L13.5576 11.2302C13.9684 10.859 14.5922 10.8547 15.008 11.2203ZM16.2454 10.3926C15.7548 10.3926 15.5255 11.0001 15.8938 11.3243C16.1018 11.5075 16.4155 11.5003 16.615 11.3079C16.9595 10.9755 16.7242 10.3926 16.2454 10.3926ZM16.9573 12.261C16.7888 12.1128 16.7827 11.8523 16.9441 11.6963C17.2118 11.4378 17.6539 11.6729 17.5892 12.0394C17.5371 12.3344 17.1822 12.4589 16.9573 12.261ZM2.71056 12.0396C2.76269 12.3348 3.11783 12.4593 3.34283 12.2611C3.51122 12.1128 3.51722 11.8524 3.35584 11.6965C3.08811 11.4378 2.64583 11.673 2.71056 12.0396ZM4.40605 11.3244C4.19803 11.5075 3.88431 11.5003 3.68486 11.3079C3.34029 10.9755 3.5756 10.3927 4.05438 10.3927C4.54502 10.3927 4.77432 11.0002 4.40605 11.3244ZM6.86647 11.171C6.44592 10.781 5.79843 10.7727 5.368 11.1517L5.31276 11.2004C4.82277 11.6319 4.80545 12.3898 5.27522 12.8432C5.69394 13.2473 6.35274 13.2625 6.78963 12.8781L6.84488 12.8294C7.34185 12.3921 7.35188 11.6211 6.86647 11.171ZM3.34492 12.9326C3.72669 12.5966 4.30246 12.6097 4.66853 12.9628L4.76154 13.0525C5.23136 13.5057 5.21414 14.2635 4.72421 14.6949L3.88713 15.4319C3.66993 15.6232 3.3298 15.539 3.27894 15.2541L3.02843 13.8357C2.96915 13.5001 3.08909 13.1578 3.34492 12.9326ZM17.2312 16.2519C17.2137 16.2869 17.2017 16.3231 17.1834 16.3577C17.1644 16.3935 17.1376 16.4265 17.1169 16.4615C16.9162 16.8006 16.6591 17.1011 16.3562 17.3505C15.8479 17.7688 15.2138 18.0437 14.5137 18.1198C14.5035 18.1217 14.4944 18.1217 14.4842 18.1227C14.3655 18.1344 14.2448 18.1412 14.122 18.1412L10.1621 18.15H10.1519H10.154H10.1367L6.17674 18.1412C6.05499 18.1412 5.93425 18.1354 5.81555 18.1227C5.8054 18.1227 5.79424 18.1207 5.78409 18.1188C5.08402 18.0427 4.4499 17.7678 3.94157 17.3495C3.63845 17.1 3.38127 16.8001 3.18048 16.4601C3.16003 16.4254 3.13365 16.393 3.11465 16.3576C3.096 16.3227 3.084 16.2857 3.0664 16.2504C2.92516 15.9667 2.82294 15.66 2.76564 15.3351L1.94584 10.7014C1.91415 10.5223 1.75846 10.3917 1.57653 10.3917C1.18288 10.3917 0.825736 10.2376 0.567011 9.98803C0.31133 9.7394 0.150002 9.3962 0.150002 9.01887C0.150002 8.64835 0.305237 8.31101 0.555842 8.06335L0.570047 8.04873C0.828769 7.8001 1.18692 7.64507 1.57957 7.64507H1.67486C2.47078 7.64507 3.16684 7.11276 3.36324 6.34145C4.2804 2.73876 4.93989 0.150156 10.2611 0.149994C10.2614 0.149994 10.2616 0.150212 10.2616 0.150481C10.2616 0.150751 10.2619 0.150969 10.2621 0.150969C15.4484 0.149177 16.0419 2.6052 16.8769 6.06362C16.8915 6.12409 16.9061 6.18486 16.9209 6.24594C17.1213 7.07402 17.8675 7.64412 18.7194 7.64412C19.105 7.64412 19.456 7.7933 19.7137 8.03413L19.7289 8.04778C19.9897 8.29738 20.15 8.64156 20.15 9.01889C20.15 9.39702 19.9898 9.74008 19.7303 9.98868C19.7301 9.98891 19.7298 9.98903 19.7294 9.98903C19.7291 9.98903 19.7288 9.98916 19.7286 9.98938C19.4699 10.2378 19.1129 10.3927 18.7204 10.3927C18.5385 10.3927 18.3828 10.5233 18.3512 10.7024L17.5323 15.3361C17.475 15.6611 17.3725 15.9688 17.2312 16.2519ZM15.9351 15.6861C16.3302 16.0338 16.4247 16.6366 16.0193 16.9722C15.8148 17.1407 15.5861 17.2818 15.339 17.3905C14.8694 17.597 14.3427 17.4101 13.9664 17.0613L13.5489 16.6744C13.0607 16.2219 13.0529 15.4522 13.5318 14.9899C13.9662 14.5707 14.6495 14.555 15.1027 14.9538L15.9351 15.6861ZM13.0423 14.757C13.5147 14.3011 13.4973 13.5391 13.0046 13.1053L12.986 13.0889C12.5575 12.7116 11.9141 12.7157 11.4905 13.0986C11.0013 13.5408 10.9964 14.3073 11.48 14.7556L11.4982 14.7725C11.9355 15.1779 12.6133 15.1711 13.0423 14.757ZM10.9456 12.9073C11.4277 12.4714 11.4227 11.7128 10.9348 11.2834L10.8682 11.2248C10.4576 10.8634 9.84238 10.8634 9.43181 11.2249C8.94854 11.6504 8.93898 12.4003 9.41125 12.838L9.47627 12.8983C9.88974 13.2814 10.5274 13.2854 10.9456 12.9073ZM12.2227 10.3927C11.6887 10.3927 11.4392 11.054 11.8401 11.4068C12.0611 11.6012 12.3927 11.599 12.6111 11.4017C13.0045 11.0461 12.753 10.3927 12.2227 10.3927ZM12.2944 17.648C12.8503 17.6469 13.1171 16.9651 12.7094 16.5871C12.4712 16.3661 12.1018 16.3698 11.8681 16.5955C11.4716 16.9783 11.7433 17.649 12.2944 17.648ZM11.0122 16.7157C11.5005 16.2445 11.4927 15.4598 10.9952 14.9984C10.5461 14.582 9.85337 14.5775 9.39898 14.9881L9.357 15.026C8.84864 15.4854 8.83565 16.2792 9.32869 16.755C9.78699 17.1972 10.5131 17.1972 10.9714 16.755L11.0122 16.7157ZM8.90991 13.0628C9.40421 13.5217 9.39896 14.3057 8.89858 14.758L8.84995 14.8019C8.40125 15.2075 7.71506 15.1962 7.27997 14.7761C6.7967 14.3094 6.81466 13.5296 7.31892 13.0857L7.36812 13.0423C7.8111 12.6524 8.47742 12.6612 8.90991 13.0628ZM7.79377 11.3389C7.42985 11.0015 7.66858 10.3929 8.16483 10.3929C8.66803 10.3929 8.90315 11.016 8.52538 11.3484C8.31518 11.5334 7.9991 11.5293 7.79377 11.3389ZM6.77446 14.9957C6.33651 14.5727 5.64725 14.5569 5.19027 14.9591L4.36457 15.686C3.96952 16.0338 3.87507 16.6366 4.28047 16.9722C4.4897 17.1446 4.72428 17.2885 4.97823 17.3983C5.44008 17.598 5.95635 17.4177 6.3296 17.0802L6.74637 16.7035C7.24835 16.2497 7.26125 15.4657 6.77446 14.9957ZM8.4466 16.6093C8.21803 16.3887 7.85769 16.3829 7.62209 16.5959C7.21241 16.9664 7.47372 17.6469 8.02604 17.648C8.56993 17.649 8.83799 16.987 8.4466 16.6093ZM16.1517 7.64554C16.449 7.64531 16.6656 7.36319 16.593 7.07486C16.516 6.76891 16.4435 6.46858 16.3725 6.17574C15.5923 2.94371 15.0373 0.647644 10.2631 0.64923C10.2629 0.649231 10.2626 0.649449 10.2626 0.649718C10.2626 0.649987 10.2624 0.650206 10.2621 0.650206C5.3468 0.650371 4.7289 3.07813 3.86764 6.45927C3.81581 6.66204 3.76344 6.86799 3.70993 7.07491C3.63544 7.36303 3.85212 7.64587 4.14972 7.64587C4.36045 7.64587 4.5434 7.50022 4.5879 7.29425C4.64435 7.0329 4.69783 6.77183 4.75035 6.5168C5.35606 3.57021 5.79741 1.41936 10.15 1.4281C14.4955 1.4203 14.9419 3.579 15.5529 6.53527C15.6042 6.78387 15.6569 7.0384 15.7121 7.29293C15.7568 7.49952 15.9403 7.6457 16.1517 7.64554ZM14.2215 7.64507C14.7535 7.64508 15.1513 7.15077 15.0423 6.6301C14.4802 3.9079 14.0683 1.9178 10.1489 1.92454C6.22345 1.91674 5.81644 3.89797 5.25852 6.61138C5.14939 7.14203 5.55412 7.6449 6.09588 7.64491L14.2215 7.64507Z" fill="#FF9100" stroke="#FF9100" stroke-width="0.3"/>
</svg>
