<svg width="19" height="19" viewBox="0 0 19 19" fill="none" xmlns="http://www.w3.org/2000/svg">
<path d="M15.9259 0.202103C15.9258 0.202168 15.9258 0.202215 15.9257 0.202222C15.8623 0.208973 15.8033 0.237377 15.7577 0.282957L13.1003 2.94384C13.0398 3.0044 13.0099 3.08963 13.0196 3.17411L13.0914 3.78199C13.1659 4.41328 12.9472 5.04394 12.4979 5.4936L8.95579 9.0385C8.95569 9.0386 8.95576 9.03877 8.9559 9.03877C8.95604 9.03877 8.95611 9.03893 8.95601 9.03903C8.8472 9.14896 8.84729 9.32596 8.95627 9.43577C9.00932 9.48811 9.08029 9.51802 9.155 9.51802C9.22972 9.51802 9.30143 9.48811 9.35448 9.43577L13.4275 5.35957C13.5332 5.25376 13.6816 5.20228 13.8302 5.2199L15.2268 5.38557C15.2269 5.38559 15.227 5.38539 15.2269 5.38526C15.2268 5.38514 15.2269 5.38493 15.2271 5.38495C15.3128 5.39523 15.3985 5.36532 15.4589 5.30414L18.1163 2.6446C18.1933 2.56834 18.2202 2.45544 18.1843 2.35302C18.1492 2.25059 18.0581 2.17732 17.9505 2.16535L17.051 2.0592C16.6795 2.01535 16.3866 1.72235 16.3429 1.35084L16.2367 0.448344C16.2367 0.448147 16.2369 0.447974 16.2371 0.447974C16.2373 0.447974 16.2374 0.447799 16.2374 0.447602C16.2246 0.341593 16.1521 0.251305 16.0507 0.216204C16.0104 0.202011 15.9678 0.196775 15.926 0.201985C15.9259 0.201993 15.9259 0.202039 15.9259 0.202103ZM9.32351 0.274464C9.32361 0.274559 9.32354 0.27473 9.3234 0.274728C8.84839 0.266526 8.37338 0.295689 7.90435 0.362211C6.02694 0.627629 4.23403 1.48894 2.82278 2.90136C-0.673506 6.40039 -0.674271 12.0797 2.82053 15.5774C6.31529 19.0749 11.9917 19.0743 15.4879 15.5751C18.3037 12.7572 18.9222 8.4135 17.0069 4.92123C17.0068 4.92101 17.0067 4.92077 17.0067 4.92053C17.0067 4.92028 17.0067 4.92004 17.0066 4.91982C16.9699 4.85494 16.9095 4.80647 16.8386 4.78632C16.7669 4.76539 16.69 4.77436 16.6242 4.81025C16.489 4.88576 16.4397 5.05624 16.5152 5.19231C18.3119 8.46778 17.7314 12.5351 15.0905 15.1782C11.8086 18.4619 6.49829 18.4634 3.2187 15.1804C-0.0608946 11.8975 -0.0608946 6.58145 3.22094 3.29775C5.86774 0.648862 9.94211 0.0730516 13.2172 1.88366C13.2173 1.8837 13.2174 1.8836 13.2173 1.88354C13.2173 1.88348 13.2173 1.88338 13.2174 1.88342C13.3533 1.95782 13.5233 1.90918 13.5987 1.77326C13.6346 1.70821 13.6435 1.6312 13.6226 1.55943C13.6024 1.48765 13.5539 1.42709 13.4889 1.3912C12.1794 0.667535 10.7489 0.300426 9.32362 0.2742C9.32348 0.274197 9.32341 0.274369 9.32351 0.274464ZM15.2024 1.63601C15.4224 1.41599 15.7992 1.54675 15.8356 1.85575L15.8846 2.27138C15.8846 2.27158 15.8844 2.27175 15.8842 2.27175C15.8841 2.27175 15.8839 2.27193 15.8839 2.27213C15.899 2.4013 16.0013 2.50354 16.1312 2.51849C16.6084 2.57482 16.8104 3.15673 16.4706 3.4966L15.5677 4.39989C15.3088 4.65889 14.9455 4.78486 14.5818 4.74166L13.8107 4.65007C13.8111 4.65007 13.8112 4.64971 13.8111 4.64945C13.8015 4.6355 13.7904 4.62297 13.7786 4.61044C13.7635 4.59685 13.7518 4.57938 13.7495 4.55921L13.662 3.81952C13.6191 3.45636 13.745 3.09355 14.0035 2.83496L15.2024 1.63601ZM9.18851 3.43254C9.18855 3.43276 9.18839 3.43295 9.18817 3.43295C8.98448 3.43222 8.78154 3.44118 8.57934 3.46207C8.57914 3.4621 8.57897 3.46194 8.57897 3.46174C8.57897 3.46154 8.5788 3.46138 8.5786 3.4614C7.28181 3.59157 6.02834 4.15604 5.05266 5.13315C2.789 7.39936 2.78977 11.0808 5.05266 13.3455C7.31556 15.6102 10.9928 15.6086 13.257 13.3432C15.209 11.3897 15.5155 8.32665 13.9893 6.02546C13.9892 6.02526 13.989 6.02514 13.9888 6.02514C13.9885 6.02514 13.9883 6.02502 13.9882 6.02483C13.9022 5.89649 13.729 5.86073 13.6007 5.94589C13.5379 5.98701 13.4946 6.05131 13.4796 6.12458C13.4647 6.19785 13.4796 6.27412 13.5215 6.33618C14.9013 8.41692 14.6256 11.1773 12.8603 12.944C10.811 14.9949 7.49626 14.9964 5.44852 12.9462C3.40002 10.8969 3.40155 7.57948 5.45076 5.5286C7.21603 3.76194 9.97475 3.48674 12.0538 4.8682C12.0539 4.86826 12.0539 4.86841 12.0538 4.86841C12.0536 4.86841 12.0536 4.86856 12.0537 4.86862C12.1156 4.90958 12.191 4.92446 12.2641 4.90953C12.3373 4.89533 12.4015 4.85196 12.4426 4.78916C12.4837 4.7271 12.4986 4.65159 12.4845 4.57831C12.4695 4.50504 12.4262 4.44074 12.3642 4.39962C11.3946 3.75521 10.289 3.4382 9.18885 3.43213C9.18863 3.43213 9.18847 3.43233 9.18851 3.43254ZM9.1452 6.39186C9.14523 6.39206 9.14508 6.39223 9.14488 6.39223C8.94702 6.39301 8.74993 6.41394 8.55582 6.45578C8.0381 6.56718 7.54426 6.82439 7.14309 7.22587C6.03442 8.33541 6.03517 10.1417 7.14309 11.2505C8.25102 12.3593 10.0566 12.36 11.1653 11.2505C11.9676 10.4476 12.1932 9.28066 11.8333 8.27588C11.8333 8.27564 11.8332 8.2754 11.8332 8.27515C11.8332 8.2749 11.8332 8.27466 11.8331 8.27442C11.8076 8.2043 11.7561 8.14687 11.6883 8.11477C11.6203 8.08262 11.5426 8.07889 11.4724 8.10506C11.3267 8.15814 11.252 8.31814 11.3043 8.46394C11.5926 9.26917 11.4163 10.2037 10.7694 10.8521C9.87511 11.747 8.43475 11.7478 7.54199 10.8543C6.64847 9.9601 6.64773 8.51862 7.54199 7.62439C8.18882 6.97705 9.1239 6.79979 9.92908 7.08888C9.9292 7.08892 9.92929 7.08877 9.9292 7.08868C9.92911 7.08859 9.92921 7.08844 9.92933 7.08848C10.0749 7.13972 10.2352 7.06422 10.2874 6.91784C10.339 6.77205 10.2635 6.61129 10.1178 6.55896C9.80419 6.44611 9.47485 6.39003 9.14553 6.39148C9.14533 6.39148 9.14518 6.39166 9.1452 6.39186Z" fill="#116E52" stroke="#116E52" stroke-width="0.4"/>
</svg>
