<svg width="60" height="60" viewBox="0 0 60 60" fill="none" xmlns="http://www.w3.org/2000/svg">
<rect width="60" height="60" rx="16" fill="black"/>
<path d="M28.2503 30.0127L21.6903 18.899L15.1314 30.0127L8.57144 41.1265H34.8102L28.2513 30.0127H28.2503ZM26.9787 38.2944H16.387C15.4808 38.2944 14.9145 37.3593 15.3676 36.6132L17.9802 32.176L20.6709 27.74C21.124 26.9927 22.2566 26.9927 22.7086 27.74L25.3063 32.176L27.9959 36.6132C28.449 37.3593 27.8827 38.2944 26.9765 38.2944H26.9787Z" fill="#01F9A4"/>
<path d="M32.4219 29.9709L38.9819 41.0847L45.5408 29.9709L52.1008 18.8571H25.862L32.4209 29.9709H32.4219ZM33.6946 21.6882H44.2863C45.1924 21.6882 45.7588 22.6233 45.3057 23.3694L42.6931 27.8065L40.0024 32.2426C39.5493 32.9898 38.4166 32.9898 37.9646 32.2426L35.3669 27.8065L32.6773 23.3694C32.2243 22.6233 32.7906 21.6882 33.6967 21.6882H33.6946Z" fill="#00D1FF"/>
</svg>
