<svg width="26" height="20" viewBox="0 0 26 20" fill="none" xmlns="http://www.w3.org/2000/svg">
<path d="M6.60243 4.79807C7.0942 4.79807 7.5027 4.3662 7.5027 3.84632C7.5027 2.78035 8.29495 1.90473 9.26725 1.90473L22.4349 1.90473C23.4072 1.90473 24.1995 2.78035 24.1995 3.84632L24.1994 16.1549C24.1994 17.2209 23.4072 18.0965 22.4349 18.0965L9.26725 18.0965C8.29495 18.0965 7.5027 17.2209 7.5027 16.1549C7.5027 15.635 7.09419 15.2031 6.60243 15.2031C6.11066 15.2031 5.70215 15.635 5.70215 16.1549C5.70215 18.2737 7.29902 20 9.26725 20L22.4349 20C24.4031 20 26 18.2737 26 16.1549L26 3.8451C26 1.72626 24.4031 2.2604e-07 22.4349 5.39732e-08L9.26725 -1.09718e-06C7.29903 -1.26925e-06 5.70215 1.72626 5.70215 3.8451C5.70215 4.36499 6.11066 4.79685 6.60243 4.79685L6.60243 4.79807Z" fill="white"/>
<path d="M0.90029 10.9524L8.34219 10.9524L6.55403 12.5132C6.17029 12.8428 6.12189 13.4519 6.43361 13.8588C6.74533 14.2645 7.3215 14.3156 7.70639 13.9861L11.4279 10.7501C11.4279 10.7501 11.4403 10.7251 11.4515 10.712C11.5112 10.649 11.5596 10.5729 11.608 10.4967C11.6316 10.4586 11.6564 10.4337 11.6676 10.3956C11.716 10.2814 11.752 10.1422 11.752 10.0018C11.752 9.8626 11.716 9.7353 11.6676 9.60799C11.6552 9.56992 11.6192 9.54494 11.608 9.50687C11.5596 9.43073 11.5123 9.35459 11.4515 9.29153C11.4515 9.29153 11.4392 9.26655 11.4279 9.25346L7.70639 6.01749C7.53871 5.86521 7.33389 5.80215 7.13021 5.80215C6.86576 5.80215 6.61367 5.91636 6.43362 6.14479C6.1219 6.55046 6.16916 7.14771 6.55403 7.49034L8.34219 9.05122L0.90029 9.05122C0.408523 9.05122 1.3764e-05 9.48309 1.37185e-05 10.003C1.36731e-05 10.5229 0.408523 10.9547 0.90029 10.9547L0.90029 10.9524Z" fill="white"/>
</svg>
